<svg width="38" height="39" viewBox="0 0 38 39" fill="none" xmlns="http://www.w3.org/2000/svg">
<rect x="0.000427246" y="0.390625" width="37.9997" height="38.0165" rx="2" fill="#475993"/>
<g clip-path="url(#clip0)">
<path d="M25.5748 10.3926H12.4261C11.0866 10.3926 10.0006 11.479 10.0006 12.8192V25.9742C10.0006 27.3144 11.0865 28.4009 12.4261 28.4009H18.911L18.922 21.9657H17.251C17.0338 21.9657 16.8575 21.79 16.8567 21.5727L16.8487 19.4984C16.8479 19.2799 17.0246 19.1024 17.243 19.1024H18.911V17.0981C18.911 14.7721 20.3309 13.5055 22.4049 13.5055H24.1068C24.3245 13.5055 24.5011 13.6822 24.5011 13.9V15.6491C24.5011 15.8669 24.3246 16.0435 24.107 16.0436L23.0626 16.0441C21.9347 16.0441 21.7163 16.5803 21.7163 17.3672V19.1024H24.1946C24.4308 19.1024 24.614 19.3087 24.5862 19.5434L24.3404 21.6177C24.3169 21.8162 24.1487 21.9658 23.9489 21.9658H21.7273L21.7163 28.4009H25.5749C26.9144 28.4009 28.0004 27.3145 28.0004 25.9743V12.8192C28.0003 11.479 26.9144 10.3926 25.5748 10.3926Z" fill="white"/>
</g>
<defs>
<clipPath id="clip0">
<rect width="17.9999" height="18.0084" fill="white" transform="translate(10.0004 10.3926)"/>
</clipPath>
</defs>
</svg>
