<svg width="38" height="39" viewBox="0 0 38 39" fill="none" xmlns="http://www.w3.org/2000/svg">
<rect y="0.390625" width="37.9997" height="38.0165" rx="2" fill="url(#paint0_linear)"/>
<g clip-path="url(#clip0)">
<path d="M19.0029 14.7725C16.4506 14.7725 14.3844 16.8419 14.3844 19.3931C14.3844 21.9465 16.4529 24.0138 19.0029 24.0138C21.5551 24.0138 23.6213 21.9443 23.6213 19.3931C23.6213 16.8397 21.5529 14.7725 19.0029 14.7725ZM19.0029 22.3923C17.3461 22.3923 16.0051 21.0499 16.0051 19.3931C16.0051 17.7363 17.3469 16.394 19.0029 16.394C20.6589 16.394 22.0006 17.7363 22.0006 19.3931C22.0013 21.0499 20.6596 22.3923 19.0029 22.3923Z" fill="white"/>
<path d="M22.7109 10.4501C21.0549 10.3728 16.9532 10.3766 15.2957 10.4501C13.8392 10.5184 12.5545 10.8703 11.5187 11.9065C9.78774 13.6384 10.009 15.9719 10.009 19.3943C10.009 22.8969 9.81399 25.1765 11.5187 26.882C13.2565 28.6198 15.6227 28.3925 19.0029 28.3925C22.4709 28.3925 23.6679 28.3947 24.8941 27.9197C26.5614 27.2722 27.8199 25.7812 27.9429 23.1033C28.0209 21.4457 28.0164 17.3428 27.9429 15.6846C27.7944 12.5233 26.0986 10.6062 22.7109 10.4501ZM25.3321 25.7362C24.1974 26.8715 22.6232 26.7702 18.9812 26.7702C15.2312 26.7702 13.7275 26.8257 12.6302 25.725C11.3665 24.4666 11.5952 22.4459 11.5952 19.3823C11.5952 15.2366 11.17 12.251 15.3287 12.0379C16.2842 12.0041 16.5654 11.9928 18.9707 11.9928L19.0044 12.0153C23.0012 12.0153 26.1369 11.5967 26.3251 15.7566C26.3679 16.7058 26.3776 16.9909 26.3776 19.3935C26.3769 23.1018 26.4474 24.6152 25.3321 25.7362Z" fill="white"/>
<path d="M23.8043 15.6683C24.4003 15.6683 24.8835 15.1851 24.8835 14.589C24.8835 13.993 24.4003 13.5098 23.8043 13.5098C23.2082 13.5098 22.725 13.993 22.725 14.589C22.725 15.1851 23.2082 15.6683 23.8043 15.6683Z" fill="white"/>
</g>
<defs>
<linearGradient id="paint0_linear" x1="18.9999" y1="0.390625" x2="18.9999" y2="38.4071" gradientUnits="userSpaceOnUse">
<stop stop-color="#FFDD55"/>
<stop offset="0.515625" stop-color="#FF543E"/>
<stop offset="1" stop-color="#C837AB"/>
</linearGradient>
<clipPath id="clip0">
<rect width="17.9999" height="18.0084" fill="white" transform="translate(10 10.3926)"/>
</clipPath>
</defs>
</svg>
