<svg width="202" height="310" viewBox="0 0 202 310" fill="none" xmlns="http://www.w3.org/2000/svg">
<g filter="url(#filter0_d)">
<path d="M161.958 74.029C161.955 74.0197 161.951 74.0073 161.948 73.9981C161.922 73.9301 161.883 73.8683 161.838 73.8096C161.831 73.8003 161.825 73.7942 161.818 73.788C161.714 73.6675 161.571 73.581 161.409 73.5439C161.35 73.5316 161.289 73.5192 161.227 73.5192H160.993V41.8241C160.993 34.1653 160.077 29.426 155.072 24.7609C152.743 22.589 148.357 20 140.666 20H61.1752C53.4931 20 49.1015 22.589 46.7725 24.7609C41.7703 29.4229 40.8543 34.1653 40.8543 41.8241V51.3737H40.5587C40.5132 51.3737 40.471 51.3892 40.4288 51.3985V51.3892C40.4125 51.3923 40.4028 51.4016 40.3865 51.4046C40.3573 51.4139 40.3313 51.4263 40.3021 51.4386C40.2696 51.4541 40.2404 51.4757 40.2111 51.4973C40.1884 51.5128 40.1657 51.5313 40.1462 51.5498C40.1169 51.5807 40.0974 51.6147 40.0747 51.6487C40.065 51.6672 40.0487 51.6858 40.0422 51.7074C40.0162 51.7661 40 51.831 40 51.899V59.6196C40 59.6876 40.0162 59.7524 40.0422 59.8111C40.0487 59.8328 40.065 59.8482 40.0747 59.8698C40.0942 59.9038 40.1169 59.9378 40.1462 59.9687C40.1657 59.9872 40.1851 60.0058 40.2111 60.0212C40.2404 60.0428 40.2664 60.0614 40.3021 60.0799C40.3281 60.0923 40.3573 60.1046 40.3865 60.1139C40.3995 60.117 40.4125 60.1263 40.4288 60.1294V60.1201C40.471 60.1294 40.5132 60.1448 40.5587 60.1448H40.8543V67.748H40.5587C40.5132 67.748 40.471 67.7635 40.4288 67.7727V67.7635C40.4125 67.7666 40.4028 67.7758 40.3865 67.7789C40.3573 67.7882 40.3313 67.8005 40.3021 67.8129C40.2696 67.8284 40.2404 67.85 40.2111 67.8716C40.1884 67.8901 40.1657 67.9056 40.1462 67.9241C40.1169 67.955 40.0974 67.989 40.0747 68.023C40.065 68.0415 40.0487 68.0601 40.0422 68.0817C40.0162 68.1404 40 68.2053 40 68.2732V83.8226C40 83.8906 40.0162 83.9524 40.0422 84.0142C40.0487 84.0358 40.065 84.0513 40.0747 84.0729C40.0942 84.11 40.1169 84.1439 40.1462 84.1717C40.1657 84.1934 40.1851 84.2088 40.2111 84.2243C40.2404 84.249 40.2664 84.2644 40.3021 84.283C40.3281 84.2984 40.3573 84.3077 40.3865 84.3169C40.3995 84.3231 40.4125 84.3293 40.4255 84.3324V84.3231C40.4677 84.3324 40.51 84.3478 40.5554 84.3478H40.851V88.7411H40.5587C40.5132 88.7411 40.471 88.7565 40.4288 88.7658V88.7565C40.4125 88.7596 40.4028 88.7689 40.3865 88.772C40.3573 88.7813 40.3313 88.7936 40.3021 88.806C40.2696 88.8214 40.2404 88.843 40.2111 88.8647C40.1884 88.8832 40.1657 88.8987 40.1462 88.9172C40.1169 88.9481 40.0974 88.9821 40.0747 89.0161C40.065 89.0346 40.0487 89.0531 40.0422 89.0748C40.0162 89.1335 40 89.1983 40 89.2663V104.816C40 104.884 40.0162 104.945 40.0422 105.007C40.0487 105.029 40.065 105.044 40.0747 105.066C40.0942 105.103 40.1169 105.137 40.1462 105.165C40.1657 105.186 40.1851 105.202 40.2111 105.217C40.2404 105.242 40.2664 105.257 40.3021 105.276C40.3281 105.291 40.3573 105.301 40.3865 105.31C40.3995 105.316 40.4125 105.322 40.4255 105.325V105.316C40.4677 105.325 40.51 105.341 40.5554 105.341H40.851V228.179C40.851 235.838 41.767 240.577 46.7693 245.242C49.0983 247.414 53.4866 250 61.1752 250H140.666C148.354 250 152.743 247.411 155.072 245.242C160.077 240.577 160.993 235.835 160.993 228.179V99.6717H161.227C161.289 99.6717 161.35 99.6624 161.409 99.6501C161.571 99.613 161.714 99.5234 161.818 99.406C161.825 99.3998 161.831 99.3906 161.838 99.3844C161.883 99.3288 161.922 99.2639 161.948 99.1959C161.951 99.1836 161.955 99.1743 161.958 99.165C161.984 99.094 162 99.0198 162 98.9395V74.2545C162 74.1773 161.984 74.1 161.958 74.029Z" fill="#F9F6F0"/>
<path d="M61.1783 247.51L61.1718 244.661V247.51C54.3798 247.51 50.5988 245.313 48.6239 243.469C44.2648 239.406 43.4982 235.31 43.4982 228.201V41.8242C43.4982 34.7184 44.2648 30.6186 48.6239 26.556C50.5988 24.7146 54.383 22.5149 61.1751 22.5149H140.666C147.464 22.5149 151.245 24.7115 153.22 26.556C157.579 30.6186 158.346 34.7153 158.346 41.8242V228.201C158.346 235.306 157.579 239.403 153.22 243.469C151.245 245.31 147.464 247.51 140.669 247.51H61.1783Z" fill="black"/>
<g opacity="0.2">
<rect x="93.2741" y="28.3417" width="15.2666" height="2.16264" rx="1.08132" fill="white"/>
<ellipse cx="114.063" cy="29.5775" rx="1.94893" ry="1.85369" fill="white"/>
</g>
<rect x="81.8764" y="239.063" width="38.5263" height="1.32767" rx="0.663834" fill="black"/>
</g>
<defs>
<filter id="filter0_d" x="0" y="0" width="202" height="310" filterUnits="userSpaceOnUse" color-interpolation-filters="sRGB">
<feFlood flood-opacity="0" result="BackgroundImageFix"/>
<feColorMatrix in="SourceAlpha" type="matrix" values="0 0 0 0 0 0 0 0 0 0 0 0 0 0 0 0 0 0 127 0"/>
<feOffset dy="20"/>
<feGaussianBlur stdDeviation="20"/>
<feColorMatrix type="matrix" values="0 0 0 0 0 0 0 0 0 0 0 0 0 0 0 0 0 0 0.25 0"/>
<feBlend mode="normal" in2="BackgroundImageFix" result="effect1_dropShadow"/>
<feBlend mode="normal" in="SourceGraphic" in2="effect1_dropShadow" result="shape"/>
</filter>
</defs>
</svg>
