<svg width="38" height="39" viewBox="0 0 38 39" fill="none" xmlns="http://www.w3.org/2000/svg">
<rect x="-0.000488281" y="0.390625" width="37.9997" height="38.0165" rx="2" fill="#0077B7"/>
<g clip-path="url(#clip0)">
<path d="M26.3702 10.3926H11.6268C10.7275 10.3926 9.99854 11.1219 9.99854 12.0216V26.7719C9.99854 27.6716 10.7275 28.4009 11.6268 28.4009H26.3701C27.2694 28.4009 27.9984 27.6716 27.9984 26.7719V12.0216C27.9984 11.1219 27.2694 10.3926 26.3702 10.3926ZM15.5685 25.9422C15.5685 26.204 15.3563 26.4163 15.0946 26.4163H13.0776C12.8159 26.4163 12.6038 26.204 12.6038 25.9422V17.4829C12.6038 17.2211 12.8159 17.0089 13.0776 17.0089H15.0946C15.3563 17.0089 15.5685 17.2211 15.5685 17.4829V25.9422ZM14.0861 16.2115C13.0278 16.2115 12.1699 15.3531 12.1699 14.2944C12.1699 13.2356 13.0278 12.3773 14.0861 12.3773C15.1444 12.3773 16.0023 13.2356 16.0023 14.2944C16.0023 15.3531 15.1444 16.2115 14.0861 16.2115ZM26.1094 25.9804C26.1094 26.2211 25.9143 26.4163 25.6737 26.4163H23.5093C23.2687 26.4163 23.0736 26.2211 23.0736 25.9804V22.0125C23.0736 21.4206 23.2472 19.4187 21.5275 19.4187C20.1935 19.4187 19.923 20.7889 19.8686 21.4038V25.9804C19.8686 26.2211 19.6736 26.4163 19.433 26.4163H17.3396C17.099 26.4163 16.9039 26.2211 16.9039 25.9804V17.4447C16.9039 17.204 17.099 17.0089 17.3396 17.0089H19.433C19.6736 17.0089 19.8686 17.204 19.8686 17.4447V18.1828C20.3633 17.4401 21.0983 16.8669 22.6634 16.8669C26.1292 16.8669 26.1094 20.1063 26.1094 21.8863V25.9804Z" fill="white"/>
</g>
<defs>
<clipPath id="clip0">
<rect width="17.9999" height="18.0084" fill="white" transform="translate(9.99854 10.3926)"/>
</clipPath>
</defs>
</svg>
