<svg width="85" height="16" viewBox="0 0 85 16" fill="none" xmlns="http://www.w3.org/2000/svg">
<path d="M7.334 15L2.762 9.402V15H0.242V2.436H2.762V8.07L7.334 2.436H10.376L5.192 8.664L10.52 15H7.334ZM16.6055 15.162C15.6455 15.162 14.7815 14.952 14.0135 14.532C13.2455 14.1 12.6395 13.494 12.1955 12.714C11.7635 11.934 11.5475 11.034 11.5475 10.014C11.5475 8.994 11.7695 8.094 12.2135 7.314C12.6695 6.534 13.2875 5.934 14.0675 5.514C14.8475 5.082 15.7175 4.866 16.6775 4.866C17.6375 4.866 18.5075 5.082 19.2875 5.514C20.0675 5.934 20.6795 6.534 21.1235 7.314C21.5795 8.094 21.8075 8.994 21.8075 10.014C21.8075 11.034 21.5735 11.934 21.1055 12.714C20.6495 13.494 20.0255 14.1 19.2335 14.532C18.4535 14.952 17.5775 15.162 16.6055 15.162ZM16.6055 12.966C17.0615 12.966 17.4875 12.858 17.8835 12.642C18.2915 12.414 18.6155 12.078 18.8555 11.634C19.0955 11.19 19.2155 10.65 19.2155 10.014C19.2155 9.066 18.9635 8.34 18.4595 7.836C17.9675 7.32 17.3615 7.062 16.6415 7.062C15.9215 7.062 15.3155 7.32 14.8235 7.836C14.3435 8.34 14.1035 9.066 14.1035 10.014C14.1035 10.962 14.3375 11.694 14.8055 12.21C15.2855 12.714 15.8855 12.966 16.6055 12.966ZM26.1761 6.486C26.5001 6.006 26.9441 5.616 27.5081 5.316C28.0841 5.016 28.7381 4.866 29.4701 4.866C30.3221 4.866 31.0901 5.076 31.7741 5.496C32.4701 5.916 33.0161 6.516 33.4121 7.296C33.8201 8.064 34.0241 8.958 34.0241 9.978C34.0241 10.998 33.8201 11.904 33.4121 12.696C33.0161 13.476 32.4701 14.082 31.7741 14.514C31.0901 14.946 30.3221 15.162 29.4701 15.162C28.7261 15.162 28.0721 15.018 27.5081 14.73C26.9561 14.43 26.5121 14.046 26.1761 13.578V15H23.6561V1.68H26.1761V6.486ZM31.4501 9.978C31.4501 9.378 31.3241 8.862 31.0721 8.43C30.8321 7.986 30.5081 7.65 30.1001 7.422C29.7041 7.194 29.2721 7.08 28.8041 7.08C28.3481 7.08 27.9161 7.2 27.5081 7.44C27.1121 7.668 26.7881 8.004 26.5361 8.448C26.2961 8.892 26.1761 9.414 26.1761 10.014C26.1761 10.614 26.2961 11.136 26.5361 11.58C26.7881 12.024 27.1121 12.366 27.5081 12.606C27.9161 12.834 28.3481 12.948 28.8041 12.948C29.2721 12.948 29.7041 12.828 30.1001 12.588C30.5081 12.348 30.8321 12.006 31.0721 11.562C31.3241 11.118 31.4501 10.59 31.4501 9.978ZM40.2833 15.162C39.3233 15.162 38.4593 14.952 37.6913 14.532C36.9233 14.1 36.3173 13.494 35.8733 12.714C35.4413 11.934 35.2253 11.034 35.2253 10.014C35.2253 8.994 35.4473 8.094 35.8913 7.314C36.3473 6.534 36.9653 5.934 37.7453 5.514C38.5253 5.082 39.3953 4.866 40.3553 4.866C41.3153 4.866 42.1853 5.082 42.9653 5.514C43.7453 5.934 44.3573 6.534 44.8013 7.314C45.2573 8.094 45.4853 8.994 45.4853 10.014C45.4853 11.034 45.2513 11.934 44.7833 12.714C44.3273 13.494 43.7033 14.1 42.9113 14.532C42.1313 14.952 41.2553 15.162 40.2833 15.162ZM40.2833 12.966C40.7393 12.966 41.1653 12.858 41.5613 12.642C41.9693 12.414 42.2933 12.078 42.5333 11.634C42.7733 11.19 42.8933 10.65 42.8933 10.014C42.8933 9.066 42.6413 8.34 42.1373 7.836C41.6453 7.32 41.0393 7.062 40.3193 7.062C39.5993 7.062 38.9933 7.32 38.5013 7.836C38.0213 8.34 37.7813 9.066 37.7813 10.014C37.7813 10.962 38.0153 11.694 38.4833 12.21C38.9633 12.714 39.5633 12.966 40.2833 12.966ZM49.8538 6.486C50.1778 6.006 50.6218 5.616 51.1858 5.316C51.7618 5.016 52.4158 4.866 53.1478 4.866C53.9998 4.866 54.7678 5.076 55.4518 5.496C56.1478 5.916 56.6938 6.516 57.0898 7.296C57.4978 8.064 57.7018 8.958 57.7018 9.978C57.7018 10.998 57.4978 11.904 57.0898 12.696C56.6938 13.476 56.1478 14.082 55.4518 14.514C54.7678 14.946 53.9998 15.162 53.1478 15.162C52.4038 15.162 51.7498 15.018 51.1858 14.73C50.6338 14.43 50.1898 14.046 49.8538 13.578V15H47.3338V1.68H49.8538V6.486ZM55.1278 9.978C55.1278 9.378 55.0018 8.862 54.7498 8.43C54.5098 7.986 54.1858 7.65 53.7778 7.422C53.3818 7.194 52.9498 7.08 52.4818 7.08C52.0258 7.08 51.5938 7.2 51.1858 7.44C50.7898 7.668 50.4658 8.004 50.2138 8.448C49.9738 8.892 49.8538 9.414 49.8538 10.014C49.8538 10.614 49.9738 11.136 50.2138 11.58C50.4658 12.024 50.7898 12.366 51.1858 12.606C51.5938 12.834 52.0258 12.948 52.4818 12.948C52.9498 12.948 53.3818 12.828 53.7778 12.588C54.1858 12.348 54.5098 12.006 54.7498 11.562C55.0018 11.118 55.1278 10.59 55.1278 9.978ZM60.811 3.84C60.367 3.84 59.995 3.702 59.695 3.426C59.407 3.138 59.263 2.784 59.263 2.364C59.263 1.944 59.407 1.596 59.695 1.32C59.995 1.032 60.367 0.887999 60.811 0.887999C61.255 0.887999 61.621 1.032 61.909 1.32C62.209 1.596 62.359 1.944 62.359 2.364C62.359 2.784 62.209 3.138 61.909 3.426C61.621 3.702 61.255 3.84 60.811 3.84ZM62.053 5.028V15H59.533V5.028H62.053ZM63.8948 9.978C63.8948 8.97 64.0928 8.076 64.4888 7.296C64.8968 6.516 65.4488 5.916 66.1448 5.496C66.8408 5.076 67.6148 4.866 68.4668 4.866C69.1148 4.866 69.7328 5.01 70.3208 5.298C70.9088 5.574 71.3768 5.946 71.7248 6.414V1.68H74.2808V15H71.7248V13.524C71.4128 14.016 70.9748 14.412 70.4108 14.712C69.8468 15.012 69.1928 15.162 68.4488 15.162C67.6088 15.162 66.8408 14.946 66.1448 14.514C65.4488 14.082 64.8968 13.476 64.4888 12.696C64.0928 11.904 63.8948 10.998 63.8948 9.978ZM71.7428 10.014C71.7428 9.402 71.6228 8.88 71.3828 8.448C71.1428 8.004 70.8188 7.668 70.4108 7.44C70.0028 7.2 69.5648 7.08 69.0968 7.08C68.6288 7.08 68.1968 7.194 67.8008 7.422C67.4048 7.65 67.0808 7.986 66.8288 8.43C66.5888 8.862 66.4688 9.378 66.4688 9.978C66.4688 10.578 66.5888 11.106 66.8288 11.562C67.0808 12.006 67.4048 12.348 67.8008 12.588C68.2088 12.828 68.6408 12.948 69.0968 12.948C69.5648 12.948 70.0028 12.834 70.4108 12.606C70.8188 12.366 71.1428 12.03 71.3828 11.598C71.6228 11.154 71.7428 10.626 71.7428 10.014ZM80.558 15.162C79.742 15.162 79.01 15.018 78.362 14.73C77.714 14.43 77.198 14.028 76.814 13.524C76.442 13.02 76.238 12.462 76.202 11.85H78.74C78.788 12.234 78.974 12.552 79.298 12.804C79.634 13.056 80.048 13.182 80.54 13.182C81.02 13.182 81.392 13.086 81.656 12.894C81.932 12.702 82.07 12.456 82.07 12.156C82.07 11.832 81.902 11.592 81.566 11.436C81.242 11.268 80.72 11.088 80 10.896C79.256 10.716 78.644 10.53 78.164 10.338C77.696 10.146 77.288 9.852 76.94 9.456C76.604 9.06 76.436 8.526 76.436 7.854C76.436 7.302 76.592 6.798 76.904 6.342C77.228 5.886 77.684 5.526 78.272 5.262C78.872 4.998 79.574 4.866 80.378 4.866C81.566 4.866 82.514 5.166 83.222 5.766C83.93 6.354 84.32 7.152 84.392 8.16H81.98C81.944 7.764 81.776 7.452 81.476 7.224C81.188 6.984 80.798 6.864 80.306 6.864C79.85 6.864 79.496 6.948 79.244 7.116C79.004 7.284 78.884 7.518 78.884 7.818C78.884 8.154 79.052 8.412 79.388 8.592C79.724 8.76 80.246 8.934 80.954 9.114C81.674 9.294 82.268 9.48 82.736 9.672C83.204 9.864 83.606 10.164 83.942 10.572C84.29 10.968 84.47 11.496 84.482 12.156C84.482 12.732 84.32 13.248 83.996 13.704C83.684 14.16 83.228 14.52 82.628 14.784C82.04 15.036 81.35 15.162 80.558 15.162Z" fill="#FAFAFA"/>
</svg>
