<svg width="87" height="32" viewBox="0 0 87 32" fill="none" xmlns="http://www.w3.org/2000/svg">
<rect width="87" height="32" fill="black"/>
<path d="M21.344 20.224H25.024V22H19.104V10.832H21.344V20.224ZM31.6318 22.112C30.5864 22.112 29.6264 21.8667 28.7518 21.376C27.8771 20.8853 27.1838 20.208 26.6718 19.344C26.1598 18.4693 25.9038 17.4827 25.9038 16.384C25.9038 15.296 26.1598 14.32 26.6718 13.456C27.1838 12.5813 27.8771 11.8987 28.7518 11.408C29.6264 10.9173 30.5864 10.672 31.6318 10.672C32.6878 10.672 33.6478 10.9173 34.5118 11.408C35.3864 11.8987 36.0744 12.5813 36.5758 13.456C37.0878 14.32 37.3438 15.296 37.3438 16.384C37.3438 17.4827 37.0878 18.4693 36.5758 19.344C36.0744 20.208 35.3864 20.8853 34.5118 21.376C33.6371 21.8667 32.6771 22.112 31.6318 22.112ZM31.6318 20.112C32.3038 20.112 32.8958 19.9627 33.4078 19.664C33.9198 19.3547 34.3198 18.9173 34.6078 18.352C34.8958 17.7867 35.0398 17.1307 35.0398 16.384C35.0398 15.6373 34.8958 14.9867 34.6078 14.432C34.3198 13.8667 33.9198 13.4347 33.4078 13.136C32.8958 12.8373 32.3038 12.688 31.6318 12.688C30.9598 12.688 30.3624 12.8373 29.8398 13.136C29.3278 13.4347 28.9278 13.8667 28.6398 14.432C28.3518 14.9867 28.2078 15.6373 28.2078 16.384C28.2078 17.1307 28.3518 17.7867 28.6398 18.352C28.9278 18.9173 29.3278 19.3547 29.8398 19.664C30.3624 19.9627 30.9598 20.112 31.6318 20.112ZM46.7863 14.192C46.5303 13.7227 46.1783 13.3653 45.7303 13.12C45.2823 12.8747 44.7596 12.752 44.1623 12.752C43.5009 12.752 42.9143 12.9013 42.4023 13.2C41.8903 13.4987 41.4903 13.9253 41.2023 14.48C40.9143 15.0347 40.7703 15.6747 40.7703 16.4C40.7703 17.1467 40.9143 17.7973 41.2023 18.352C41.5009 18.9067 41.9116 19.3333 42.4343 19.632C42.9569 19.9307 43.5649 20.08 44.2583 20.08C45.1116 20.08 45.8103 19.856 46.3542 19.408C46.8983 18.9493 47.2556 18.3147 47.4263 17.504H43.5863V15.792H49.6343V17.744C49.4849 18.5227 49.1649 19.2427 48.6743 19.904C48.1836 20.5653 47.5489 21.0987 46.7703 21.504C46.0023 21.8987 45.1383 22.096 44.1783 22.096C43.1009 22.096 42.1249 21.856 41.2503 21.376C40.3863 20.8853 39.7036 20.208 39.2023 19.344C38.7116 18.48 38.4663 17.4987 38.4663 16.4C38.4663 15.3013 38.7116 14.32 39.2023 13.456C39.7036 12.5813 40.3863 11.904 41.2503 11.424C42.1249 10.9333 43.0956 10.688 44.1623 10.688C45.4209 10.688 46.5143 10.9973 47.4423 11.616C48.3703 12.224 49.0103 13.0827 49.3623 14.192H46.7863ZM56.4755 22.112C55.4302 22.112 54.4702 21.8667 53.5955 21.376C52.7208 20.8853 52.0275 20.208 51.5155 19.344C51.0035 18.4693 50.7475 17.4827 50.7475 16.384C50.7475 15.296 51.0035 14.32 51.5155 13.456C52.0275 12.5813 52.7208 11.8987 53.5955 11.408C54.4702 10.9173 55.4302 10.672 56.4755 10.672C57.5315 10.672 58.4915 10.9173 59.3555 11.408C60.2302 11.8987 60.9182 12.5813 61.4195 13.456C61.9315 14.32 62.1875 15.296 62.1875 16.384C62.1875 17.4827 61.9315 18.4693 61.4195 19.344C60.9182 20.208 60.2302 20.8853 59.3555 21.376C58.4808 21.8667 57.5208 22.112 56.4755 22.112ZM56.4755 20.112C57.1475 20.112 57.7395 19.9627 58.2515 19.664C58.7635 19.3547 59.1635 18.9173 59.4515 18.352C59.7395 17.7867 59.8835 17.1307 59.8835 16.384C59.8835 15.6373 59.7395 14.9867 59.4515 14.432C59.1635 13.8667 58.7635 13.4347 58.2515 13.136C57.7395 12.8373 57.1475 12.688 56.4755 12.688C55.8035 12.688 55.2062 12.8373 54.6835 13.136C54.1715 13.4347 53.7715 13.8667 53.4835 14.432C53.1955 14.9867 53.0515 15.6373 53.0515 16.384C53.0515 17.1307 53.1955 17.7867 53.4835 18.352C53.7715 18.9173 54.1715 19.3547 54.6835 19.664C55.2062 19.9627 55.8035 20.112 56.4755 20.112Z" fill="#FAFAFA"/>
</svg>
