<svg width="110" height="230" viewBox="0 0 110 230" fill="none" xmlns="http://www.w3.org/2000/svg">
<path d="M0 45.8118C0 45.1901 0.470143 44.6862 1.05009 44.6862C1.63004 44.6862 2.10019 45.1901 2.10019 45.8118V73.5769C2.10019 74.1985 1.63004 74.7025 1.05009 74.7025C0.470143 74.7025 0 74.1985 0 73.5769V45.8118Z" fill="#161616"/>
<path d="M0 81.8314C0 81.2097 0.470143 80.7057 1.05009 80.7057C1.63004 80.7057 2.10019 81.2097 2.10019 81.8314V91.5867C2.10019 92.2083 1.63004 92.7123 1.05009 92.7123C0.470143 92.7123 0 92.2083 0 91.5867V81.8314Z" fill="#161616"/>
<path d="M107.81 43.1854C107.81 42.5637 108.28 42.0597 108.86 42.0597C109.44 42.0597 109.91 42.5637 109.91 43.1854V52.9407C109.91 53.5623 109.44 54.0663 108.86 54.0663C108.28 54.0663 107.81 53.5623 107.81 52.9407V43.1854Z" fill="#161616"/>
<path d="M0.700063 9.3801C0.700063 4.19962 4.61792 0 9.45085 0H100.459C105.292 0 109.21 4.19961 109.21 9.3801V220.62C109.21 225.8 105.292 230 100.459 230H9.45084C4.61792 230 0.700063 225.8 0.700063 220.62V9.3801Z" fill="#161616"/>
<path d="M1.40002 10.8614C1.40002 5.68093 5.31788 1.48132 10.1508 1.48132H99.7588C104.592 1.48132 108.51 5.68094 108.51 10.8614V219.138C108.51 224.319 104.592 228.518 99.7588 228.518H10.1508C5.31789 228.518 1.40002 224.319 1.40002 219.138V10.8614Z" fill="url(#paint0_linear)"/>
<path d="M1.40002 219.138C1.40002 224.319 5.31788 228.518 10.1508 228.518H99.7588C104.592 228.518 108.51 224.319 108.51 219.138V10.8614C108.51 5.68093 104.592 1.48132 99.7588 1.48132H10.1508C5.31789 1.48132 1.40002 5.68094 1.40002 10.8614V219.138Z" fill="url(#paint1_linear)"/>
<mask id="mask0" mask-type="alpha" maskUnits="userSpaceOnUse" x="2" y="4" width="106" height="217">
<path d="M2.45007 10.8808C2.45007 7.56532 4.9575 4.87756 8.05057 4.87756H102.209C105.302 4.87756 107.809 7.56532 107.809 10.8808V214.992C107.809 218.307 105.302 220.995 102.209 220.995H8.05057C4.9575 220.995 2.45007 218.307 2.45007 214.992V10.8808Z" fill="#CFCFCF"/>
</mask>
<g mask="url(#mask0)">
<path d="M1.40082 10.8808C1.40082 5.70034 5.31868 1.50073 10.1516 1.50073H99.7596C104.593 1.50073 108.51 5.70035 108.51 10.8808V219.119C108.51 224.299 104.593 228.499 99.7596 228.499H10.1516C5.31868 228.499 1.40082 224.299 1.40082 219.119V10.8808Z" fill="url(#paint2_linear)"/>
<path d="M9.4333 54.4055C9.07122 54.4055 8.70915 54.3595 8.34707 54.2674C7.99113 54.1754 7.67508 54.0465 7.39893 53.8808L7.64747 53.2825C8.2182 53.6139 8.81347 53.7796 9.4333 53.7796C9.90584 53.7796 10.274 53.6752 10.5379 53.4666C10.8018 53.2518 10.9338 52.9603 10.9338 52.5921C10.9338 52.2791 10.8448 52.0275 10.6668 51.8372C10.495 51.6409 10.228 51.4936 9.86595 51.3954L9.11111 51.1837C8.54652 51.0241 8.12921 50.797 7.85919 50.5025C7.59531 50.2079 7.46336 49.8243 7.46336 49.3518C7.46336 48.7933 7.65054 48.3484 8.02489 48.017C8.40537 47.6856 8.91473 47.5199 9.55297 47.5199C9.87208 47.5199 10.1973 47.5568 10.5287 47.6304C10.8663 47.6979 11.1731 47.7961 11.4493 47.925L11.2099 48.5233C10.584 48.2717 10.0255 48.1459 9.53456 48.1459C9.10498 48.1459 8.76745 48.2472 8.52197 48.4497C8.28263 48.6461 8.16297 48.9161 8.16297 49.2597C8.16297 49.5727 8.24888 49.8274 8.42071 50.0238C8.59868 50.214 8.86871 50.3582 9.23078 50.4564L9.98562 50.6682C10.5502 50.8277 10.9644 51.0548 11.2283 51.3494C11.4984 51.6439 11.6334 52.0275 11.6334 52.5C11.6334 52.8805 11.5413 53.215 11.3572 53.5034C11.1792 53.7918 10.9246 54.0158 10.5932 54.1754C10.2618 54.3288 9.87515 54.4055 9.4333 54.4055Z" fill="white"/>
<path d="M14.0547 49.2597C14.5825 49.2597 15.0059 49.3917 15.3251 49.6556C15.6503 49.9195 15.8129 50.3061 15.8129 50.8154V54.295H15.1962V53.6967C14.8771 54.1631 14.383 54.3963 13.7141 54.3963C13.2293 54.3963 12.8488 54.2674 12.5727 54.0097C12.3027 53.7519 12.1676 53.3929 12.1676 52.9327C12.1676 52.3497 12.41 51.9201 12.8949 51.6439C13.3797 51.3616 14.1314 51.2174 15.1502 51.2113V50.8707C15.1502 50.5516 15.0489 50.3092 14.8464 50.1435C14.65 49.9716 14.3616 49.8857 13.9811 49.8857C13.5822 49.8857 13.1956 49.9747 12.8212 50.1527L12.6463 49.5911C13.082 49.3702 13.5515 49.2597 14.0547 49.2597ZM13.8614 53.7888C14.1253 53.7888 14.3616 53.7397 14.5702 53.6415C14.7789 53.5433 14.9722 53.3929 15.1502 53.1904V51.7636C14.3585 51.7697 13.7755 51.8649 13.4012 52.049C13.0268 52.2269 12.8396 52.5062 12.8396 52.8866C12.8396 53.1812 12.9255 53.4052 13.0974 53.5586C13.2692 53.712 13.5239 53.7888 13.8614 53.7888Z" fill="white"/>
<path d="M22.0821 49.2597C22.5424 49.2597 22.9014 49.3978 23.1591 49.674C23.4169 49.944 23.5458 50.3245 23.5458 50.8154V54.295H22.883V50.8615C22.883 50.5485 22.8001 50.3122 22.6344 50.1527C22.4687 49.987 22.2263 49.9041 21.9072 49.9041C21.4592 49.9041 21.0327 50.076 20.6277 50.4196C20.6522 50.5239 20.6645 50.6559 20.6645 50.8154V54.295H20.0017V50.8615C20.0017 50.5485 19.9158 50.3122 19.744 50.1527C19.5783 49.987 19.3359 49.9041 19.0168 49.9041C18.7836 49.9041 18.5657 49.944 18.3632 50.0238C18.1607 50.1036 17.9612 50.2263 17.7648 50.392V54.295H17.1021V49.3794H17.7188V49.9041C18.13 49.4745 18.6209 49.2597 19.1917 49.2597C19.5046 49.2597 19.7747 49.3273 20.0017 49.4623C20.2288 49.5911 20.3975 49.7752 20.508 50.0146C20.9437 49.5114 21.4684 49.2597 22.0821 49.2597Z" fill="white"/>
<path d="M26.0132 54.4055C25.7124 54.4055 25.4179 54.3687 25.1294 54.295C24.841 54.2153 24.5894 54.1079 24.3746 53.9729L24.6139 53.4021C25.0558 53.6722 25.5222 53.8072 26.0132 53.8072C26.3814 53.8072 26.6575 53.7397 26.8416 53.6047C27.0319 53.4635 27.127 53.2579 27.127 52.9879C27.127 52.7792 27.0687 52.6135 26.9521 52.4908C26.8355 52.3681 26.6514 52.276 26.3998 52.2147L25.7462 52.0582C25.2982 51.9538 24.9668 51.7912 24.752 51.5703C24.5434 51.3494 24.439 51.0579 24.439 50.6958C24.439 50.2478 24.5863 49.898 24.8809 49.6464C25.1816 49.3948 25.5989 49.269 26.1328 49.269C26.4028 49.269 26.6698 49.3027 26.9337 49.3702C27.1976 49.4316 27.4338 49.5175 27.6425 49.628L27.3755 50.1987C26.946 49.9778 26.5256 49.8673 26.1144 49.8673C25.783 49.8673 25.5314 49.9348 25.3596 50.0698C25.1877 50.1987 25.1018 50.3889 25.1018 50.6405C25.1018 50.8369 25.1601 50.9965 25.2767 51.1192C25.3933 51.2358 25.5774 51.3248 25.829 51.3862L26.4826 51.5427C26.9306 51.647 27.2589 51.8127 27.4676 52.0398C27.6824 52.2668 27.7898 52.5675 27.7898 52.9419C27.7898 53.4021 27.6333 53.7611 27.3203 54.0189C27.0073 54.2766 26.5716 54.4055 26.0132 54.4055Z" fill="white"/>
<path d="M32.2731 49.3794V54.295H31.6564V53.7059C31.2943 54.1784 30.8003 54.4147 30.1743 54.4147C29.7018 54.4147 29.3336 54.2766 29.0697 54.0005C28.8058 53.7243 28.6739 53.3438 28.6739 52.859V49.3794H29.3366V52.813C29.3366 53.126 29.4226 53.3653 29.5944 53.531C29.7662 53.6906 30.0178 53.7703 30.3492 53.7703C30.607 53.7703 30.8371 53.7243 31.0396 53.6323C31.2421 53.5402 31.4324 53.3929 31.6103 53.1904V49.3794H32.2731Z" fill="white"/>
<path d="M35.7531 49.2597C36.2318 49.2597 36.6061 49.3978 36.8761 49.674C37.1462 49.9501 37.2812 50.3306 37.2812 50.8154V54.295H36.6184V50.8615C36.6184 50.5485 36.5294 50.3122 36.3514 50.1527C36.1735 49.987 35.9157 49.9041 35.5782 49.9041C35.3327 49.9041 35.1057 49.944 34.897 50.0238C34.6884 50.0974 34.4858 50.2202 34.2895 50.392V54.295H33.6267V49.3794H34.2434V49.9041C34.6546 49.4745 35.1578 49.2597 35.7531 49.2597Z" fill="white"/>
<path d="M42.1696 49.3794V54.3319C42.1696 54.9578 41.9824 55.4457 41.608 55.7955C41.2337 56.1453 40.7121 56.3202 40.0431 56.3202C39.7977 56.3202 39.5553 56.2957 39.3159 56.2466C39.0827 56.1975 38.8833 56.13 38.7176 56.0441L38.9201 55.4457C39.2638 55.6175 39.6381 55.7035 40.0431 55.7035C40.5218 55.7035 40.8839 55.5869 41.1294 55.3537C41.381 55.1205 41.5068 54.7799 41.5068 54.3319V53.4574C41.1754 53.9115 40.7121 54.1386 40.1168 54.1386C39.5338 54.1386 39.0766 53.9207 38.7452 53.485C38.4138 53.0493 38.2481 52.4417 38.2481 51.6623C38.2481 50.9075 38.423 50.3184 38.7728 49.8949C39.1226 49.4715 39.6074 49.2597 40.2272 49.2597C40.4973 49.2597 40.7458 49.315 40.9729 49.4254C41.1999 49.5359 41.3932 49.6924 41.5528 49.8949V49.3794H42.1696ZM40.2917 53.4942C40.531 53.4942 40.7489 53.4482 40.9453 53.3561C41.1416 53.2579 41.3288 53.1045 41.5068 52.8958V50.438C41.3411 50.2539 41.1478 50.1128 40.9268 50.0146C40.7059 49.9164 40.4727 49.8673 40.2272 49.8673C39.8038 49.8673 39.4816 50.0177 39.2607 50.3184C39.0459 50.6191 38.9385 51.0671 38.9385 51.6623C38.9385 52.2637 39.052 52.7209 39.2791 53.0339C39.5062 53.3408 39.8437 53.4942 40.2917 53.4942Z" fill="white"/>
<path d="M46.865 54.4055C46.5029 54.4055 46.1409 54.3595 45.7788 54.2674C45.4228 54.1754 45.1068 54.0465 44.8306 53.8808L45.0792 53.2825C45.6499 53.6139 46.2452 53.7796 46.865 53.7796C47.3375 53.7796 47.7058 53.6752 47.9696 53.4666C48.2335 53.2518 48.3655 52.9603 48.3655 52.5921C48.3655 52.2791 48.2765 52.0275 48.0985 51.8372C47.9267 51.6409 47.6597 51.4936 47.2976 51.3954L46.5428 51.1837C45.9782 51.0241 45.5609 50.797 45.2909 50.5025C45.027 50.2079 44.8951 49.8243 44.8951 49.3518C44.8951 48.7933 45.0822 48.3484 45.4566 48.017C45.8371 47.6856 46.3464 47.5199 46.9847 47.5199C47.3038 47.5199 47.629 47.5568 47.9604 47.6304C48.298 47.6979 48.6048 47.7961 48.881 47.925L48.6416 48.5233C48.0157 48.2717 47.4572 48.1459 46.9663 48.1459C46.5367 48.1459 46.1992 48.2472 45.9537 48.4497C45.7143 48.6461 45.5947 48.9161 45.5947 49.2597C45.5947 49.5727 45.6806 49.8274 45.8524 50.0238C46.0304 50.214 46.3004 50.3582 46.6625 50.4564L47.4173 50.6682C47.9819 50.8277 48.3961 51.0548 48.66 51.3494C48.9301 51.6439 49.0651 52.0275 49.0651 52.5C49.0651 52.8805 48.973 53.215 48.7889 53.5034C48.6109 53.7918 48.3563 54.0158 48.0249 54.1754C47.6935 54.3288 47.3069 54.4055 46.865 54.4055Z" fill="white"/>
<path d="M51.9743 47.6304V54.295H51.3023V48.3852L49.7374 48.9284L49.5349 48.3484L51.4036 47.6304H51.9743Z" fill="white"/>
<path d="M55.7765 54.4147C55.0339 54.4147 54.4816 54.1355 54.1195 53.577C53.7574 53.0124 53.5764 52.141 53.5764 50.9627C53.5764 49.7845 53.7574 48.9161 54.1195 48.3576C54.4816 47.793 55.0339 47.5107 55.7765 47.5107C56.519 47.5107 57.0714 47.793 57.4334 48.3576C57.7955 48.9161 57.9765 49.7845 57.9765 50.9627C57.9765 52.141 57.7955 53.0124 57.4334 53.577C57.0714 54.1355 56.519 54.4147 55.7765 54.4147ZM55.7765 53.8072C56.292 53.8072 56.6694 53.577 56.9087 53.1168C57.1542 52.6565 57.2769 51.9385 57.2769 50.9627C57.2769 49.987 57.1542 49.269 56.9087 48.8087C56.6694 48.3484 56.292 48.1183 55.7765 48.1183C55.261 48.1183 54.8805 48.3484 54.635 48.8087C54.3957 49.269 54.276 49.987 54.276 50.9627C54.276 51.9385 54.3957 52.6565 54.635 53.1168C54.8805 53.577 55.261 53.8072 55.7765 53.8072Z" fill="white"/>
<path d="M62.9754 51.2205H61.208V53.1444H60.5544V51.2205H58.787V50.5853H60.5544V48.6614H61.208V50.5853H62.9754V51.2205Z" fill="white"/>
<path d="M13.8334 61.2042V67.8688H13.1707V62.2812L11.2099 66.4788H10.4919L8.53118 62.2812V67.8688H7.8776V61.2042H8.69687L10.8601 65.8068L13.005 61.2042H13.8334Z" fill="white"/>
<path d="M16.9084 67.9885C16.2579 67.9885 15.7577 67.7706 15.4079 67.3349C15.0581 66.8931 14.8832 66.2518 14.8832 65.411C14.8832 64.5703 15.0581 63.932 15.4079 63.4963C15.7577 63.0544 16.2609 62.8335 16.9176 62.8335C17.5681 62.8335 18.0682 63.0544 18.418 63.4963C18.7678 63.932 18.9427 64.5703 18.9427 65.411C18.9427 66.2518 18.7678 66.8931 18.418 67.3349C18.0682 67.7706 17.565 67.9885 16.9084 67.9885ZM16.9084 67.3901C17.3502 67.3901 17.6847 67.2244 17.9117 66.8931C18.1388 66.5555 18.2523 66.0615 18.2523 65.411C18.2523 64.7605 18.1388 64.2695 17.9117 63.9382C17.6847 63.6006 17.3533 63.4319 16.9176 63.4319C16.4757 63.4319 16.1413 63.6006 15.9142 63.9382C15.6871 64.2695 15.5736 64.7605 15.5736 65.411C15.5736 66.0615 15.6871 66.5555 15.9142 66.8931C16.1413 67.2244 16.4727 67.3901 16.9084 67.3901Z" fill="white"/>
<path d="M21.7599 67.9793C21.0726 67.9793 20.5356 67.7522 20.149 67.2981C19.7685 66.844 19.5783 66.2088 19.5783 65.3926C19.5783 64.8832 19.6673 64.4352 19.8452 64.0486C20.0232 63.662 20.2717 63.3644 20.5909 63.1557C20.9161 62.9409 21.2905 62.8335 21.7139 62.8335C21.9471 62.8335 22.1864 62.8703 22.4319 62.944C22.6774 63.0115 22.9014 63.1066 23.1039 63.2293L22.8462 63.7725C22.4473 63.5577 22.0637 63.4503 21.6955 63.4503C21.2475 63.4503 20.8977 63.616 20.6461 63.9474C20.3945 64.2788 20.2687 64.7421 20.2687 65.3374C20.2687 66.0001 20.3975 66.5034 20.6553 66.847C20.9192 67.1846 21.3058 67.3533 21.8152 67.3533C22.1957 67.3533 22.5608 67.249 22.9106 67.0403L23.1591 67.5743C22.9873 67.7031 22.7787 67.8013 22.5332 67.8688C22.2877 67.9425 22.03 67.9793 21.7599 67.9793Z" fill="white"/>
<path d="M25.3688 65.5399L24.6508 66.3315V67.8688H23.988V60.7807H24.6508V65.5123L26.8692 62.9532H27.6885L25.829 65.0244L27.7898 67.8688H26.9705L25.3688 65.5399Z" fill="white"/>
<path d="M31.9786 62.9532V67.8688H31.3618V67.2797C30.9997 67.7522 30.5057 67.9885 29.8797 67.9885C29.4072 67.9885 29.039 67.8504 28.7751 67.5743C28.5112 67.2981 28.3793 66.9176 28.3793 66.4328V62.9532H29.0421V66.3868C29.0421 66.6997 29.128 66.9391 29.2998 67.1048C29.4716 67.2643 29.7233 67.3441 30.0546 67.3441C30.3124 67.3441 30.5425 67.2981 30.745 67.206C30.9476 67.114 31.1378 66.9667 31.3158 66.7642V62.9532H31.9786Z" fill="white"/>
<path d="M35.3757 62.8335C35.9587 62.8335 36.4128 63.0637 36.7381 63.5239C37.0633 63.9842 37.2259 64.6255 37.2259 65.4478C37.2259 66.2456 37.051 66.8685 36.7012 67.3165C36.3576 67.7645 35.8789 67.9885 35.2652 67.9885C35.0136 67.9885 34.7773 67.9394 34.5564 67.8412C34.3416 67.743 34.1544 67.6049 33.9949 67.427V69.7743H33.3321V62.9532H33.9489V63.5791C34.1146 63.3337 34.3171 63.1496 34.5564 63.0268C34.8019 62.898 35.075 62.8335 35.3757 62.8335ZM35.2652 67.3809C35.6825 67.3809 35.9986 67.2183 36.2134 66.8931C36.4282 66.5678 36.5355 66.0861 36.5355 65.4478C36.5355 64.7973 36.422 64.3064 36.195 63.975C35.974 63.6436 35.6457 63.4779 35.21 63.4779C34.9706 63.4779 34.7528 63.527 34.5564 63.6252C34.36 63.7172 34.1729 63.8676 33.9949 64.0762V66.8102C34.1544 66.9882 34.3447 67.1293 34.5656 67.2337C34.7865 67.3318 35.0197 67.3809 35.2652 67.3809Z" fill="white"/>
<path d="M51.243 124.877C50.9766 124.877 50.7407 124.834 50.5353 124.746C50.3336 124.655 50.1757 124.527 50.0616 124.364C49.9512 124.196 49.8961 124.004 49.8961 123.787C49.8961 123.544 49.9779 123.319 50.1415 123.114C50.3051 122.905 50.522 122.75 50.7921 122.652C50.579 122.575 50.4059 122.442 50.2727 122.252C50.1434 122.062 50.0787 121.851 50.0787 121.619C50.0787 121.314 50.1852 121.069 50.3983 120.882C50.6114 120.692 50.8929 120.597 51.243 120.597C51.5968 120.597 51.8803 120.692 52.0934 120.882C52.3064 121.069 52.413 121.314 52.413 121.619C52.413 121.851 52.3464 122.06 52.2132 122.246C52.0839 122.429 51.9126 122.558 51.6996 122.634C51.9697 122.714 52.1866 122.855 52.3502 123.057C52.5138 123.258 52.5956 123.487 52.5956 123.742C52.5956 123.966 52.5385 124.164 52.4244 124.335C52.314 124.506 52.1561 124.64 51.9507 124.735C51.749 124.83 51.5131 124.877 51.243 124.877ZM51.2772 122.492C51.4979 122.416 51.671 122.303 51.7966 122.155C51.9221 122.007 51.9849 121.841 51.9849 121.658C51.9849 121.445 51.9183 121.276 51.7852 121.151C51.6558 121.025 51.4751 120.962 51.243 120.962C51.0147 120.962 50.834 121.023 50.7008 121.145C50.5714 121.267 50.5067 121.434 50.5067 121.647C50.5067 121.837 50.5752 122.009 50.7122 122.161C50.8492 122.309 51.0375 122.419 51.2772 122.492ZM51.243 124.506C51.5283 124.506 51.7528 124.44 51.9164 124.307C52.08 124.17 52.1619 123.983 52.1619 123.747C52.1619 123.553 52.0781 123.373 51.9107 123.205C51.7433 123.034 51.5131 122.897 51.2201 122.794C50.9424 122.893 50.7236 123.026 50.5638 123.194C50.4078 123.357 50.3298 123.538 50.3298 123.736C50.3298 123.976 50.4097 124.164 50.5695 124.301C50.7331 124.438 50.9576 124.506 51.243 124.506Z" fill="white"/>
<path d="M54.445 124.877C53.9846 124.877 53.6422 124.704 53.4177 124.358C53.1932 124.008 53.081 123.468 53.081 122.737C53.081 122.007 53.1932 121.468 53.4177 121.122C53.6422 120.772 53.9846 120.597 54.445 120.597C54.9054 120.597 55.2478 120.772 55.4723 121.122C55.6968 121.468 55.809 122.007 55.809 122.737C55.809 123.468 55.6968 124.008 55.4723 124.358C55.2478 124.704 54.9054 124.877 54.445 124.877ZM54.445 124.501C54.7646 124.501 54.9986 124.358 55.147 124.073C55.2992 123.787 55.3753 123.342 55.3753 122.737C55.3753 122.132 55.2992 121.687 55.147 121.402C54.9986 121.116 54.7646 120.974 54.445 120.974C54.1254 120.974 53.8895 121.116 53.7373 121.402C53.5889 121.687 53.5147 122.132 53.5147 122.737C53.5147 123.342 53.5889 123.787 53.7373 124.073C53.8895 124.358 54.1254 124.501 54.445 124.501Z" fill="white"/>
<path d="M57.1619 123.097C56.8879 123.097 56.6806 122.992 56.5398 122.783C56.399 122.57 56.3286 122.258 56.3286 121.847C56.3286 121.436 56.399 121.126 56.5398 120.917C56.6806 120.703 56.8879 120.597 57.1619 120.597C57.4358 120.597 57.6432 120.703 57.784 120.917C57.9248 121.126 57.9952 121.436 57.9952 121.847C57.9952 122.258 57.9248 122.57 57.784 122.783C57.6432 122.992 57.4358 123.097 57.1619 123.097ZM59.4962 120.671H59.9128L57.7155 124.803H57.2989L59.4962 120.671ZM57.1619 122.771C57.3141 122.771 57.4263 122.697 57.4986 122.549C57.5709 122.397 57.6071 122.163 57.6071 121.847C57.6071 121.531 57.5709 121.299 57.4986 121.151C57.4263 120.998 57.3141 120.922 57.1619 120.922C57.0097 120.922 56.8975 120.998 56.8252 121.151C56.7529 121.299 56.7167 121.531 56.7167 121.847C56.7167 122.163 56.7529 122.397 56.8252 122.549C56.8975 122.697 57.0097 122.771 57.1619 122.771ZM60.0498 124.877C59.7758 124.877 59.5685 124.773 59.4277 124.563C59.2869 124.35 59.2165 124.038 59.2165 123.627C59.2165 123.217 59.2869 122.906 59.4277 122.697C59.5685 122.484 59.7758 122.378 60.0498 122.378C60.3237 122.378 60.5311 122.484 60.6719 122.697C60.8127 122.906 60.883 123.217 60.883 123.627C60.883 124.038 60.8127 124.35 60.6719 124.563C60.5311 124.773 60.3237 124.877 60.0498 124.877ZM60.0498 124.552C60.202 124.552 60.3142 124.478 60.3865 124.329C60.4588 124.177 60.4949 123.943 60.4949 123.627C60.4949 123.312 60.4588 123.08 60.3865 122.931C60.3142 122.779 60.202 122.703 60.0498 122.703C59.8976 122.703 59.7853 122.779 59.713 122.931C59.6408 123.08 59.6046 123.312 59.6046 123.627C59.6046 123.943 59.6408 124.177 59.713 124.329C59.7853 124.478 59.8976 124.552 60.0498 124.552Z" fill="white"/>
<circle cx="55.1994" cy="94.245" r="1.26006" fill="white"/>
<circle cx="55.1994" cy="153.153" r="1.26006" fill="white"/>
<circle cx="47.5769" cy="95.2485" r="1.26006" transform="rotate(-15 47.5769 95.2485)" fill="white"/>
<circle cx="62.8229" cy="152.149" r="1.26006" transform="rotate(-15 62.8229 152.149)" fill="white"/>
<circle cx="40.4734" cy="98.1911" r="1.26006" transform="rotate(-30 40.4734 98.1911)" fill="white"/>
<circle cx="69.927" cy="149.207" r="1.26006" transform="rotate(-30 69.927 149.207)" fill="white"/>
<circle cx="34.3728" cy="102.872" r="1.26006" transform="rotate(-45 34.3728 102.872)" fill="white"/>
<circle cx="76.0267" cy="144.526" r="1.26006" transform="rotate(-45 76.0267 144.526)" fill="white"/>
<circle cx="29.6924" cy="108.972" r="1.26006" transform="rotate(-60 29.6924 108.972)" fill="white"/>
<circle cx="80.7082" cy="138.426" r="1.26006" transform="rotate(-60 80.7082 138.426)" fill="white"/>
<circle cx="26.7494" cy="116.076" r="1.26006" transform="rotate(-75 26.7494 116.076)" fill="white"/>
<circle cx="83.6504" cy="131.322" r="1.26006" transform="rotate(-75 83.6504 131.322)" fill="white"/>
<circle cx="25.7461" cy="123.699" r="1.26006" transform="rotate(-90 25.7461 123.699)" fill="white"/>
<circle cx="84.6539" cy="123.699" r="1.26006" transform="rotate(-90 84.6539 123.699)" fill="white"/>
<circle cx="26.7495" cy="131.322" r="1.26006" transform="rotate(-105 26.7495 131.322)" fill="white"/>
<circle cx="83.6505" cy="116.076" r="1.26006" transform="rotate(-105 83.6505 116.076)" fill="white"/>
<circle cx="29.6922" cy="138.426" r="1.26006" transform="rotate(-120 29.6922 138.426)" fill="white"/>
<circle cx="80.7082" cy="108.972" r="1.26006" transform="rotate(-120 80.7082 108.972)" fill="white"/>
<circle cx="34.373" cy="144.526" r="1.26006" transform="rotate(-135 34.373 144.526)" fill="white"/>
<circle cx="76.0269" cy="102.872" r="1.26006" transform="rotate(-135 76.0269 102.872)" fill="white"/>
<circle cx="40.4727" cy="149.207" r="1.26006" transform="rotate(-150 40.4727 149.207)" fill="white"/>
<circle cx="69.9265" cy="98.1912" r="1.26006" transform="rotate(-150 69.9265 98.1912)" fill="white"/>
<circle cx="47.5765" cy="152.149" r="1.26006" transform="rotate(-165 47.5765 152.149)" fill="white"/>
<circle cx="62.8227" cy="95.2486" r="1.26006" transform="rotate(-165 62.8227 95.2486)" fill="white"/>
<circle cx="57.5024" cy="100.249" r="1.00802" transform="rotate(5.60828 57.5024 100.249)" fill="white"/>
<circle cx="52.8973" cy="147.148" r="1.00802" transform="rotate(5.60828 52.8973 147.148)" fill="white"/>
<circle cx="51.3544" cy="100.452" r="1.00802" transform="rotate(-9.39172 51.3544 100.452)" fill="white"/>
<circle cx="59.0447" cy="146.945" r="1.00802" transform="rotate(-9.39172 59.0447 146.945)" fill="white"/>
<circle cx="45.4686" cy="102.239" r="1.00802" transform="rotate(-24.3917 45.4686 102.239)" fill="white"/>
<circle cx="64.93" cy="145.158" r="1.00802" transform="rotate(-24.3917 64.93 145.158)" fill="white"/>
<circle cx="40.2464" cy="105.489" r="1.00802" transform="rotate(-39.3917 40.2464 105.489)" fill="white"/>
<circle cx="70.1531" cy="141.908" r="1.00802" transform="rotate(-39.3917 70.1531 141.908)" fill="white"/>
<circle cx="36.0432" cy="109.979" r="1.00802" transform="rotate(-54.3917 36.0432 109.979)" fill="white"/>
<circle cx="74.356" cy="137.418" r="1.00802" transform="rotate(-54.3917 74.356 137.418)" fill="white"/>
<circle cx="33.1451" cy="115.405" r="1.00802" transform="rotate(-69.3917 33.1451 115.405)" fill="white"/>
<circle cx="77.2546" cy="131.992" r="1.00802" transform="rotate(-69.3917 77.2546 131.992)" fill="white"/>
<circle cx="31.7502" cy="121.396" r="1.00802" transform="rotate(-84.3917 31.7502 121.396)" fill="white"/>
<circle cx="78.6493" cy="126.002" r="1.00802" transform="rotate(-84.3917 78.6493 126.002)" fill="white"/>
<circle cx="31.953" cy="127.544" r="1.00802" transform="rotate(-99.3917 31.953 127.544)" fill="white"/>
<circle cx="78.4466" cy="119.854" r="1.00802" transform="rotate(-99.3917 78.4466 119.854)" fill="white"/>
<circle cx="33.7401" cy="133.43" r="1.00802" transform="rotate(-114.392 33.7401 133.43)" fill="white"/>
<circle cx="76.6584" cy="113.968" r="1.00802" transform="rotate(-114.392 76.6584 113.968)" fill="white"/>
<circle cx="36.9901" cy="138.652" r="1.00802" transform="rotate(-129.392 36.9901 138.652)" fill="white"/>
<circle cx="73.4093" cy="108.746" r="1.00802" transform="rotate(-129.392 73.4093 108.746)" fill="white"/>
<circle cx="41.4811" cy="142.856" r="1.00802" transform="rotate(-144.392 41.4811 142.856)" fill="white"/>
<circle cx="68.9193" cy="104.542" r="1.00802" transform="rotate(-144.392 68.9193 104.542)" fill="white"/>
<circle cx="46.9052" cy="145.754" r="1.00802" transform="rotate(-159.392 46.9052 145.754)" fill="white"/>
<circle cx="63.4921" cy="101.644" r="1.00802" transform="rotate(-159.392 63.4921 101.644)" fill="white"/>
<g opacity="0.6">
<circle cx="59.0291" cy="89.2485" r="0.787538" transform="rotate(7.46077 59.0291 89.2485)" fill="white"/>
<circle cx="50.2069" cy="156.617" r="0.787538" transform="rotate(7.46077 50.2069 156.617)" fill="white"/>
<circle cx="49.9871" cy="89.4285" r="0.787537" transform="rotate(-7.53923 49.9871 89.4285)" fill="white"/>
<circle cx="58.9018" cy="156.785" r="0.787537" transform="rotate(-7.53923 58.9018 156.785)" fill="white"/>
<circle cx="41.2996" cy="91.9428" r="0.787537" transform="rotate(-22.5392 41.2996 91.9428)" fill="white"/>
<circle cx="67.3437" cy="154.697" r="0.787537" transform="rotate(-22.5392 67.3437 154.697)" fill="white"/>
<circle cx="33.5602" cy="96.6197" r="0.787537" transform="rotate(-37.5392 33.5602 96.6197)" fill="white"/>
<circle cx="74.9588" cy="150.495" r="0.787537" transform="rotate(-37.5392 74.9588 150.495)" fill="white"/>
<circle cx="27.2929" cy="103.14" r="0.787537" transform="rotate(-52.5392 27.2929 103.14)" fill="white"/>
<circle cx="81.2239" cy="144.465" r="0.787537" transform="rotate(-52.5392 81.2239 144.465)" fill="white"/>
<circle cx="22.9278" cy="111.062" r="0.787537" transform="rotate(-67.5392 22.9278 111.062)" fill="white"/>
<circle cx="85.7179" cy="137.02" r="0.787537" transform="rotate(-67.5392 85.7179 137.02)" fill="white"/>
<circle cx="20.7625" cy="119.842" r="0.787537" transform="rotate(-82.5392 20.7625 119.842)" fill="white"/>
<circle cx="88.1301" cy="128.664" r="0.787537" transform="rotate(-82.5392 88.1301 128.664)" fill="white"/>
<circle cx="20.9412" cy="128.884" r="0.787537" transform="rotate(-97.5392 20.9412 128.884)" fill="white"/>
<circle cx="88.2978" cy="119.97" r="0.787537" transform="rotate(-97.5392 88.2978 119.97)" fill="white"/>
<circle cx="23.4561" cy="137.571" r="0.787537" transform="rotate(-112.539 23.4561 137.571)" fill="white"/>
<circle cx="86.2087" cy="111.528" r="0.787537" transform="rotate(-112.539 86.2087 111.528)" fill="white"/>
<circle cx="28.1324" cy="145.312" r="0.787537" transform="rotate(-127.539 28.1324 145.312)" fill="white"/>
<circle cx="82.0074" cy="103.914" r="0.787537" transform="rotate(-127.539 82.0074 103.914)" fill="white"/>
<circle cx="34.6539" cy="151.579" r="0.787537" transform="rotate(-142.539 34.6539 151.579)" fill="white"/>
<circle cx="75.9787" cy="97.6472" r="0.787537" transform="rotate(-142.539 75.9787 97.6472)" fill="white"/>
<circle cx="42.5745" cy="155.944" r="0.787538" transform="rotate(-157.539 42.5745 155.944)" fill="white"/>
<circle cx="68.5326" cy="93.1541" r="0.787538" transform="rotate(-157.539 68.5326 93.1541)" fill="white"/>
</g>
<rect x="1.31976" y="2.07373" width="107.836" height="41.0984" fill="url(#paint3_linear)" fill-opacity="0.65"/>
<mask id="mask1" mask-type="alpha" maskUnits="userSpaceOnUse" x="73" y="10" width="3" height="4">
<path fill-rule="evenodd" clip-rule="evenodd" d="M75.9311 13.2498V10.7458L73.3362 13.2498H75.9311Z" fill="white"/>
</mask>
<g mask="url(#mask1)">
<path fill-rule="evenodd" clip-rule="evenodd" d="M75.2824 10.7458V13.2498H75.9312V10.7458H75.2824Z" fill="white" fill-opacity="0.3"/>
<path fill-rule="evenodd" clip-rule="evenodd" d="M74.6335 10.7458V13.2498H75.2823V10.7458H74.6335Z" fill="white" fill-opacity="0.3"/>
<path fill-rule="evenodd" clip-rule="evenodd" d="M73.9853 10.7458V13.2498H74.634V10.7458H73.9853Z" fill="white" fill-opacity="0.9"/>
<path fill-rule="evenodd" clip-rule="evenodd" d="M73.3362 10.7458V13.2498H73.9849V10.7458H73.3362Z" fill="white" fill-opacity="0.9"/>
</g>
<mask id="mask2" mask-type="alpha" maskUnits="userSpaceOnUse" x="78" y="10" width="3" height="4">
<path fill-rule="evenodd" clip-rule="evenodd" d="M80.4722 10.766H80.2559V10.5574H79.391V10.766H79.1747C79.045 10.766 78.9585 10.8495 78.9585 10.9747V13.0613C78.9585 13.1865 79.045 13.2699 79.1747 13.2699H80.4722C80.6019 13.2699 80.6884 13.1865 80.6884 13.0613V10.9747C80.6884 10.8495 80.6019 10.766 80.4722 10.766Z" fill="white"/>
</mask>
<g mask="url(#mask2)">
<path fill-rule="evenodd" clip-rule="evenodd" d="M78.9586 12.644V13.27H80.6885V12.644H78.9586Z" fill="white"/>
<path fill-rule="evenodd" clip-rule="evenodd" d="M78.9586 12.0179V12.6439H80.6885V12.0179H78.9586Z" fill="white"/>
<path fill-rule="evenodd" clip-rule="evenodd" d="M78.9586 11.3921V12.0181H80.6885V11.3921H78.9586Z" fill="white" fill-opacity="0.3"/>
<path fill-rule="evenodd" clip-rule="evenodd" d="M78.9586 10.766V11.392H80.6885V10.766H78.9586Z" fill="white" fill-opacity="0.3"/>
<path fill-rule="evenodd" clip-rule="evenodd" d="M79.3909 10.5574V10.766H80.2559V10.5574H79.3909Z" fill="white" fill-opacity="0.3"/>
</g>
<path d="M7.41414 10.7889V13.1882H7.17222V11.0607L6.60886 11.2562L6.53595 11.0474L7.20867 10.7889H7.41414Z" fill="white"/>
<path d="M9.42899 12.9761V13.1882H8.03715V12.9728L8.87888 11.9355C8.98272 11.8096 9.05452 11.7047 9.09429 11.6207C9.13626 11.5368 9.15725 11.4539 9.15725 11.3722C9.15725 11.2485 9.11748 11.1513 9.03795 11.0806C8.95842 11.0099 8.84906 10.9745 8.70987 10.9745C8.61488 10.9745 8.51767 10.9911 8.41825 11.0242C8.32104 11.0574 8.23267 11.1026 8.15314 11.1601L8.03384 10.9646C8.11558 10.8983 8.21942 10.8453 8.34534 10.8055C8.47348 10.7657 8.59941 10.7458 8.72313 10.7458C8.92638 10.7458 9.08987 10.8011 9.21359 10.9115C9.33952 11.0198 9.40248 11.1645 9.40248 11.3457C9.40248 11.4539 9.37597 11.5644 9.32295 11.6771C9.27213 11.7875 9.18708 11.9168 9.06778 12.0648L8.32215 12.9761H9.42899Z" fill="white"/>
<path d="M10.1514 11.6572C10.094 11.6572 10.0487 11.6406 10.0156 11.6075C9.98462 11.5743 9.96916 11.529 9.96916 11.4716C9.96916 11.4142 9.98462 11.3689 10.0156 11.3357C10.0487 11.3026 10.094 11.286 10.1514 11.286C10.2089 11.286 10.2531 11.3026 10.284 11.3357C10.3171 11.3667 10.3337 11.4108 10.3337 11.4683C10.3337 11.5279 10.3171 11.5743 10.284 11.6075C10.2531 11.6406 10.2089 11.6572 10.1514 11.6572ZM10.1514 12.7176C10.094 12.7176 10.0487 12.7011 10.0156 12.6679C9.98462 12.6348 9.96916 12.5895 9.96916 12.532C9.96916 12.4746 9.98462 12.4293 10.0156 12.3962C10.0487 12.363 10.094 12.3465 10.1514 12.3465C10.2089 12.3465 10.2531 12.363 10.284 12.3962C10.3171 12.4271 10.3337 12.4713 10.3337 12.5287C10.3337 12.5884 10.3171 12.6348 10.284 12.6679C10.2531 12.7011 10.2089 12.7176 10.1514 12.7176Z" fill="white"/>
<path d="M11.6526 13.2313C11.3853 13.2313 11.1865 13.1308 11.0561 12.9297C10.9258 12.7265 10.8606 12.4127 10.8606 11.9886C10.8606 11.5644 10.9258 11.2518 11.0561 11.0507C11.1865 10.8475 11.3853 10.7458 11.6526 10.7458C11.9199 10.7458 12.1188 10.8475 12.2491 11.0507C12.3795 11.2518 12.4446 11.5644 12.4446 11.9886C12.4446 12.4127 12.3795 12.7265 12.2491 12.9297C12.1188 13.1308 11.9199 13.2313 11.6526 13.2313ZM11.6526 13.0126C11.8382 13.0126 11.9741 12.9297 12.0602 12.764C12.1486 12.5983 12.1928 12.3398 12.1928 11.9886C12.1928 11.6373 12.1486 11.3788 12.0602 11.2131C11.9741 11.0474 11.8382 10.9646 11.6526 10.9646C11.467 10.9646 11.3301 11.0474 11.2417 11.2131C11.1555 11.3788 11.1125 11.6373 11.1125 11.9886C11.1125 12.3398 11.1555 12.5983 11.2417 12.764C11.3301 12.9297 11.467 13.0126 11.6526 13.0126Z" fill="white"/>
<path d="M13.7072 13.2313C13.4399 13.2313 13.2411 13.1308 13.1107 12.9297C12.9804 12.7265 12.9152 12.4127 12.9152 11.9886C12.9152 11.5644 12.9804 11.2518 13.1107 11.0507C13.2411 10.8475 13.4399 10.7458 13.7072 10.7458C13.9746 10.7458 14.1734 10.8475 14.3038 11.0507C14.4341 11.2518 14.4993 11.5644 14.4993 11.9886C14.4993 12.4127 14.4341 12.7265 14.3038 12.9297C14.1734 13.1308 13.9746 13.2313 13.7072 13.2313ZM13.7072 13.0126C13.8928 13.0126 14.0287 12.9297 14.1149 12.764C14.2032 12.5983 14.2474 12.3398 14.2474 11.9886C14.2474 11.6373 14.2032 11.3788 14.1149 11.2131C14.0287 11.0474 13.8928 10.9646 13.7072 10.9646C13.5217 10.9646 13.3847 11.0474 13.2963 11.2131C13.2102 11.3788 13.1671 11.6373 13.1671 11.9886C13.1671 12.3398 13.2102 12.5983 13.2963 12.764C13.3847 12.9297 13.5217 13.0126 13.7072 13.0126Z" fill="white"/>
</g>
<path d="M1.31964 10.8806C1.31964 5.70033 5.23061 1.50085 10.055 1.50085H99.8549C104.679 1.50085 108.59 5.70033 108.59 10.8806V219.112C108.59 224.292 104.679 228.492 99.8549 228.492H10.055C5.23061 228.492 1.31964 224.292 1.31964 219.112V10.8806Z" fill="url(#paint4_linear)"/>
<path d="M108.59 10.8806C108.59 5.70033 104.679 1.50085 99.8549 1.50085H10.055C5.23061 1.50085 1.31964 5.70033 1.31964 10.8806V219.112C1.31964 224.292 5.23061 228.492 10.055 228.492H99.8549C104.679 228.492 108.59 224.292 108.59 219.112V10.8806Z" fill="url(#paint5_linear)"/>
<path d="M84.459 11.5C84.459 9.31353 86.2352 7.54102 88.4262 7.54102H97.0819C99.273 7.54102 101.049 9.31353 101.049 11.5C101.049 13.6865 99.273 15.459 97.0819 15.459H88.4262C86.2352 15.459 84.459 13.6865 84.459 11.5Z" fill="black"/>
<circle cx="88.418" cy="11.5" r="2.07377" fill="#252525"/>
<circle cx="88.418" cy="11.5001" r="1.31967" fill="#141414"/>
<circle cx="97.0901" cy="11.5" r="2.07377" fill="#252525"/>
<circle cx="97.0902" cy="11.5" r="1.13115" fill="#141414"/>
<defs>
<linearGradient id="paint0_linear" x1="54.9548" y1="-0.370529" x2="54.9548" y2="8.51836" gradientUnits="userSpaceOnUse">
<stop/>
<stop offset="1" stop-color="#3A3A3A" stop-opacity="0"/>
</linearGradient>
<linearGradient id="paint1_linear" x1="54.9548" y1="230.37" x2="54.9548" y2="221.481" gradientUnits="userSpaceOnUse">
<stop/>
<stop offset="1" stop-color="#3A3A3A" stop-opacity="0"/>
</linearGradient>
<linearGradient id="paint2_linear" x1="-38.7417" y1="373.184" x2="89.3608" y2="-50.996" gradientUnits="userSpaceOnUse">
<stop stop-color="#FC5980"/>
<stop offset="1" stop-color="#3300FF"/>
</linearGradient>
<linearGradient id="paint3_linear" x1="55.2378" y1="-18.0041" x2="55.2378" y2="28.2787" gradientUnits="userSpaceOnUse">
<stop/>
<stop offset="1" stop-opacity="0"/>
</linearGradient>
<linearGradient id="paint4_linear" x1="-8.43223" y1="228.492" x2="121.954" y2="228.492" gradientUnits="userSpaceOnUse">
<stop stop-color="#FDFDFD"/>
<stop offset="0.116343" stop-color="white" stop-opacity="0"/>
</linearGradient>
<linearGradient id="paint5_linear" x1="118.342" y1="228.492" x2="-12.044" y2="228.492" gradientUnits="userSpaceOnUse">
<stop stop-color="#FDFDFD"/>
<stop offset="0.116343" stop-color="white" stop-opacity="0"/>
</linearGradient>
</defs>
</svg>
