<svg width="38" height="39" viewBox="0 0 38 39" fill="none" xmlns="http://www.w3.org/2000/svg">
<rect y="0.259766" width="37.9997" height="38.0165" rx="2" fill="#00ACEE"/>
<path d="M26.1999 10.2617H11.8C10.81 10.2617 10 11.0746 10 12.0681V26.519C10 27.5125 10.81 28.3253 11.8 28.3253H26.1999C27.1899 28.3253 27.9999 27.5125 27.9999 26.519V12.0681C27.9999 11.0746 27.1899 10.2617 26.1999 10.2617ZM24.1299 16.8549C24.0399 21.0096 21.4299 23.8998 17.4699 24.0804C15.85 24.1707 14.68 23.6288 13.6 22.9966C14.77 23.1772 16.3 22.7257 17.11 22.0031C15.94 21.9128 15.22 21.2805 14.86 20.287C15.22 20.3773 15.58 20.287 15.85 20.287C14.77 19.9258 14.05 19.2935 13.96 17.8484C14.23 18.0291 14.59 18.1194 14.95 18.1194C14.14 17.6678 13.6 15.9518 14.23 14.8679C15.4 16.1324 16.84 17.2162 19.1799 17.3968C18.5499 14.8679 21.97 13.5132 23.3199 15.2292C23.9499 15.1389 24.3999 14.8679 24.8499 14.6873C24.6699 15.3195 24.3099 15.6808 23.8599 16.0421C24.3099 15.9518 24.7599 15.8614 25.1199 15.6808C25.0299 16.1324 24.5799 16.4937 24.1299 16.8549Z" fill="white"/>
</svg>
